# File created by Blade
# Date/Time:  Fri Jan 16 17:45:47 2015
#---------------------------------------------------------
:version 1.10
:name HOM
:units
  mass 1.0
  length 1.000000
  angle deg
:documentation
     Acclaim Skeleton File
:root
   axis xyz
   order TX TY TZ RX RY RZ
   position 0.000000 0.000000 0.000000
   orientation 0 0 0
:bonedata
   begin
      id 1
      name Spine_dum
      direction 0.000000 1.000000 0.000000
      length 7.170412
      axis 0.0 0.0 0.0 xyz
   end
   begin
      id 2
      name LeftUpLeg_dum
      direction 1.000000 0.000000 0.000000
      length 4.318350
      axis 0.0 0.0 0.0 xyz
   end
   begin
      id 3
      name RightUpLeg_dum
      direction -1.000000 0.000000 0.000000
      length 4.318350
      axis 0.0 0.0 0.0 xyz
   end
   begin
      id 4
      name Spine
      direction 0.000000 1.000000 0.000000
      length 0.000000
      axis 0.0 0.0 0.0 xyz
      dof rx ry rz
   end
   begin
      id 5
      name Spine_dum1
      direction 0.000000 1.000000 0.000000
      length 14.276153
      axis 0.0 0.0 0.0 xyz
   end
   begin
      id 6
      name Spine_dum2
      direction 0.000000 1.000000 0.000000
      length 10.718243
      axis 0.0 0.0 0.0 xyz
   end
   begin
      id 7
      name Spine_dum3
      direction 0.000000 1.000000 0.000000
      length 10.718243
      axis 0.0 0.0 0.0 xyz
   end
   begin
      id 8
      name Head
      direction 0.000000 1.000000 0.000000
      length 4.527550
      axis 0.0 0.0 0.0 xyz
      dof rx ry rz
   end
   begin
      id 9
      name LeftShoulder
      direction 1.000000 0.000000 0.000000
      length 7.058872
      axis 0.0 0.0 -90.0 xyz
      dof rx ry rz
   end
   begin
      id 10
      name LeftArm
      direction 1.000000 0.000000 0.000000
      length 10.955525
      axis 0.0 0.0 -90.0 xyz
      dof rx ry rz
   end
   begin
      id 11
      name LeftForeArm
      direction 1.000000 0.000000 0.000000
      length 8.193716
      axis 0.0 0.0 -90.0 xyz
      dof ry rz rx
   end
   begin
      id 12
      name LeftHand
      direction 0.000000 0.000000 0.000000
      length 0.000000
      axis 0.0 0.0 -90.0 xyz
      dof rx ry rz
   end
   begin
      id 13
      name LeftHand_dum1
      direction 0.000000 0.000000 0.000000
      length 0.000000
      axis 0.0 0.0 -90.0 xyz
   end
   begin
      id 14
      name LeftHand_dum2
      direction 1.000000 0.000000 0.000000
      length 3.937000
      axis 0.0 0.0 -90.0 xyz
   end
   begin
      id 15
      name LeftHandThumb1
      direction 0.000000 0.000000 1.000000
      length 3.937000
      axis 0.0 0.0 -90.0 xyz
      dof rx rz ry
   end
   begin
      id 16
      name RightShoulder
      direction -1.000000 0.000000 0.000000
      length 7.058872
      axis 0.0 0.0 90.0 xyz
      dof rx ry rz
   end
   begin
      id 17
      name RightArm
      direction -1.000000 0.000000 0.000000
      length 10.955525
      axis 0.0 0.0 90.0 xyz
      dof rx ry rz
   end
   begin
      id 18
      name RightForeArm
      direction -1.000000 0.000000 0.000000
      length 8.193716
      axis 0.0 0.0 90.0 xyz
      dof ry rz rx
   end
   begin
      id 19
      name RightHand
      direction 0.000000 0.000000 0.000000
      length 0.000000
      axis 0.0 0.0 90.0 xyz
      dof rx ry rz
   end
   begin
      id 20
      name RightHand_dum1
      direction 0.000000 0.000000 0.000000
      length 0.000000
      axis 0.0 0.0 90.0 xyz
   end
   begin
      id 21
      name RightHand_dum2
      direction -1.000000 0.000000 0.000000
      length 3.937000
      axis 0.0 0.0 90.0 xyz
   end
   begin
      id 22
      name RightHandThumb1
      direction 0.000000 0.000000 1.000000
      length 3.937000
      axis 0.0 0.0 90.0 xyz
      dof rx rz ry
   end
   begin
      id 23
      name LeftUpLeg
      direction 0.000000 -1.000000 0.000000
      length 17.323638
      axis 0.0 0.0 0.0 xyz
      dof rx ry rz
   end
   begin
      id 24
      name LeftLeg
      direction 0.000000 -1.000000 0.000000
      length 16.270368
      axis 0.0 0.0 0.0 xyz
      dof rx ry rz
   end
   begin
      id 25
      name LeftFoot
      direction 0.000000 -0.258819 0.965926
      length 4.922846
      axis 15.0 0.0 0.0 xyz
      dof rx ry rz
   end
   begin
      id 26
      name LeftToeBase
      direction 0.000000 0.000000 1.000000
      length 2.952750
      axis 0.0 0.0 0.0 xyz
      dof rx ry rz
   end
   begin
      id 27
      name RightUpLeg
      direction 0.000000 -1.000000 0.000000
      length 17.323638
      axis 0.0 0.0 0.0 xyz
      dof rx ry rz
   end
   begin
      id 28
      name RightLeg
      direction 0.000000 -1.000000 0.000000
      length 16.270368
      axis 0.0 0.0 0.0 xyz
      dof rx ry rz
   end
   begin
      id 29
      name RightFoot
      direction 0.000000 -0.258819 0.965926
      length 4.922846
      axis 15.0 0.0 0.0 xyz
      dof rx ry rz
   end
   begin
      id 30
      name RightToeBase
      direction 0.000000 0.000000 1.000000
      length 2.952750
      axis 0.0 0.0 0.0 xyz
      dof rx ry rz
   end
:hierarchy
   begin
      root Spine_dum LeftUpLeg_dum RightUpLeg_dum
      Spine_dum Spine
      LeftUpLeg_dum LeftUpLeg
      RightUpLeg_dum RightUpLeg
      Spine Spine_dum1 Spine_dum2 Spine_dum3
      Spine_dum1 Head
      Spine_dum2 LeftShoulder
      Spine_dum3 RightShoulder
      LeftShoulder LeftArm
      LeftArm LeftForeArm
      LeftForeArm LeftHand
      LeftHand LeftHand_dum1 LeftHand_dum2
      LeftHand_dum1 LeftHandThumb1
      RightShoulder RightArm
      RightArm RightForeArm
      RightForeArm RightHand
      RightHand RightHand_dum1 RightHand_dum2
      RightHand_dum1 RightHandThumb1
      LeftUpLeg LeftLeg
      LeftLeg LeftFoot
      LeftFoot LeftToeBase
      RightUpLeg RightLeg
      RightLeg RightFoot
      RightFoot RightToeBase
   end

# File created by Blade
# Date/Time:  Fri Jan 16 17:45:28 2015
# Frame Rate: 120.000 fps
#------------------------------------------------------
:FULLY-SPECIFIED
:DEGREES
2778
root -5.218487 35.204411 -9.805508 -2.034842 -6.648416 -6.259160
Spine -1.830874 -2.182801 9.134266
Head 8.276397 -1.023305 -6.346425
LeftShoulder -19.150563 14.670188 -16.755293
LeftArm 18.733388 1.918488 -74.309321
LeftForeArm 4.437328 -0.000000 12.718740
LeftHand 1.981817 0.000000 -6.029264
LeftHandThumb1 -26.253704 0.000000 33.147579
RightShoulder -2.135383 1.987849 5.473639
RightArm 1.736089 3.298815 69.071479
RightForeArm 1.847472 -0.000000 102.677109
RightHand 5.883281 0.000000 14.445972
RightHandThumb1 -24.326973 -0.000000 -32.862282
LeftUpLeg 12.914804 15.630518 7.464990
LeftLeg -9.650870 -0.000000 0.000000
LeftFoot -15.836981 27.846591 -7.905034
LeftToeBase 22.864808 -0.000000 -0.000000
RightUpLeg 8.787200 -3.799695 4.075356
RightLeg -4.587374 -0.000000 0.000000
RightFoot -4.240642 -27.053725 3.848541
RightToeBase 13.625661 -0.000000 -0.000000
2779
root -5.215925 35.204210 -9.805943 -2.022579 -6.677903 -6.255957
Spine -1.842819 -2.137806 9.131393
Head 8.241560 -1.052614 -6.390393
LeftShoulder -19.137128 14.660740 -16.758955
LeftArm 18.707994 1.867901 -74.303561
LeftForeArm 4.473831 -0.000000 12.714332
LeftHand 1.948499 -0.000000 -6.063097
LeftHandThumb1 -26.253704 0.000000 33.147579
RightShoulder -2.104231 2.101796 5.444172
RightArm 1.353714 5.322895 69.093798
RightForeArm 2.479650 0.000000 102.791193
RightHand 5.950268 -0.000000 14.054200
RightHandThumb1 -24.326973 -0.000000 -32.862282
LeftUpLeg 12.907526 15.648714 7.455627
LeftLeg -9.649466 -0.000000 0.000000
LeftFoot -15.846905 27.858123 -7.911375
LeftToeBase 22.860187 -0.000000 -0.000000
RightUpLeg 8.775539 -3.750256 4.071976
RightLeg -4.593706 -0.000000 0.000000
RightFoot -4.237845 -27.065510 3.848503
RightToeBase 13.622830 -0.000000 -0.000000
2780
root -5.212649 35.204422 -9.806458 -2.009981 -6.703197 -6.263055
Spine -1.840851 -2.010713 9.145451
Head 8.184673 -1.171140 -6.459325
LeftShoulder -19.046821 14.658694 -16.751792
LeftArm 18.680909 1.819975 -74.296121
LeftForeArm 4.469071 0.000000 12.706769
LeftHand 1.987745 0.000000 -6.119613
LeftHandThumb1 -26.253704 0.000000 33.147579
RightShoulder -2.184185 2.205935 5.405478
RightArm 1.012627 7.387498 69.109509
RightForeArm 2.793306 -0.000000 102.903120
RightHand 6.036861 -0.000000 13.583403
RightHandThumb1 -24.326973 -0.000000 -32.862282
LeftUpLeg 12.902475 15.676469 7.455925
LeftLeg -9.653922 -0.000000 0.000000
LeftFoot -15.849617 27.857496 -7.915799
LeftToeBase 22.860228 -0.000000 -0.000000
RightUpLeg 8.752929 -3.751810 4.072454
RightLeg -4.579002 -0.000000 0.000000
RightFoot -4.233244 -27.038224 3.834059
RightToeBase 13.645772 -0.000000 -0.000000
2781
root -5.210648 35.204652 -9.805127 -1.997151 -6.715931 -6.251937
Spine -1.874084 -2.072946 9.130319
Head 8.179471 -1.092057 -6.514397
LeftShoulder -19.127443 14.657753 -16.771589
LeftArm 18.678745 1.798764 -74.286426
LeftForeArm 4.419231 -0.000000 12.700982
LeftHand 1.995130 -0.000000 -6.138888
LeftHandThumb1 -26.253704 0.000000 33.147579
RightShoulder -2.061988 2.282093 5.410940
RightArm 0.634684 9.633798 69.175742
RightForeArm 2.908793 0.000000 103.046131
RightHand 6.095578 -0.000000 13.502529
RightHandThumb1 -24.326973 -0.000000 -32.862282
LeftUpLeg 12.895263 15.670901 7.436619
LeftLeg -9.658347 -0.000000 0.000000
LeftFoot -15.842222 27.862865 -7.928086
LeftToeBase 22.841370 -0.000000 -0.000000
RightUpLeg 8.743882 -3.768054 4.055770
RightLeg -4.588219 -0.000000 0.000000
RightFoot -4.228132 -27.020063 3.841629
RightToeBase 13.612442 -0.000000 -0.000000
